<?xml version="1.0" encoding="UTF-8" standalone="no"?>
<!-- Created with Inkscape (http://www.inkscape.org/) -->

<svg
   xmlns:dc="http://purl.org/dc/elements/1.1/"
   xmlns:cc="http://creativecommons.org/ns#"
   xmlns:rdf="http://www.w3.org/1999/02/22-rdf-syntax-ns#"
   xmlns:svg="http://www.w3.org/2000/svg"
   xmlns="http://www.w3.org/2000/svg"
   xmlns:sodipodi="http://sodipodi.sourceforge.net/DTD/sodipodi-0.dtd"
   xmlns:inkscape="http://www.inkscape.org/namespaces/inkscape"
   width="54"
   height="54"
   viewBox="0 0 54 54.000001"
   id="svg2"
   version="1.1"
   inkscape:version="0.91 r13725"
   sodipodi:docname="logo-small.svg">
  <defs
     id="defs4" />
  <sodipodi:namedview
     id="base"
     pagecolor="#ffffff"
     bordercolor="#666666"
     borderopacity="1.0"
     inkscape:pageopacity="0.0"
     inkscape:pageshadow="2"
     inkscape:zoom="1.75"
     inkscape:cx="-49.183873"
     inkscape:cy="-45.78907"
     inkscape:document-units="px"
     inkscape:current-layer="text3336"
     showgrid="false"
     inkscape:window-width="1276"
     inkscape:window-height="755"
     inkscape:window-x="4"
     inkscape:window-y="0"
     inkscape:window-maximized="1"
     fit-margin-top="0"
     fit-margin-left="0"
     fit-margin-right="0"
     fit-margin-bottom="0"
     units="px"
     borderlayer="true" />
  <metadata
     id="metadata7">
    <rdf:RDF>
      <cc:Work
         rdf:about="">
        <dc:format>image/svg+xml</dc:format>
        <dc:type
           rdf:resource="http://purl.org/dc/dcmitype/StillImage" />
        <dc:title></dc:title>
      </cc:Work>
    </rdf:RDF>
  </metadata>
  <g
     inkscape:label="Layer 1"
     inkscape:groupmode="layer"
     id="layer1"
     transform="translate(-150.32242,-430.98705)">
    <g
       transform="scale(0.98195182,1.0183799)"
       style="font-style:normal;font-weight:normal;font-size:48.42402267px;line-height:125%;font-family:sans-serif;letter-spacing:0px;word-spacing:0px;fill:#be90d4;fill-opacity:1;stroke:none;stroke-width:1px;stroke-linecap:butt;stroke-linejoin:miter;stroke-opacity:1"
       id="text3336">
      <path
         d="m 204.53582,468.17288 q 0,1.60783 0.8512,2.93192 0.85121,1.3241 2.1753,1.98615 l 0,0.75662 q -0.37831,0.0473 -0.75662,0.0946 -0.37832,0.0473 -0.75663,0.0473 -2.45903,0 -4.58704,-0.94578 -2.08072,-0.94578 -3.59397,-2.6009 -0.94578,0.23644 -1.93885,0.37831 -0.94578,0.14187 -1.98614,0.14187 -2.83735,0 -5.34367,-0.94578 -2.45903,-0.94579 -4.30331,-2.6009 -1.84427,-1.65512 -2.93192,-3.83042 -1.04036,-2.22259 -1.04036,-4.72891 0,-2.50632 1.04036,-4.68162 1.08765,-2.22258 2.93192,-3.8777 1.84428,-1.65512 4.30331,-2.6009 2.50632,-0.94578 5.34367,-0.94578 2.83734,0 5.29637,0.94578 2.50632,0.94578 4.3506,2.6009 1.84427,1.65512 2.88463,3.8777 1.08765,2.1753 1.08765,4.68162 0,1.98614 -0.66205,3.78313 -0.66204,1.74969 -1.84427,3.21566 -0.23644,0.56747 -0.37831,1.13493 -0.14187,0.56747 -0.14187,1.18223 l 0,0 z M 164.00908,436.0163 q -2.36446,1.93886 -3.64126,4.30331 -1.22952,2.36445 -1.22952,4.91807 0,1.41867 0.37831,2.83734 0.4256,1.37138 1.18223,2.64819 0.80391,1.37138 1.98614,2.6009 1.22952,1.18223 2.69548,2.12801 1.08765,0.70933 1.74969,1.79698 0.70934,1.08765 0.8985,2.36446 0.0946,0.4256 0.0946,0.8512 0.0473,0.4256 0.0946,0.8512 0.23645,-0.18915 0.47289,-0.4256 0.28374,-0.23644 0.56747,-0.52018 0.85121,-0.8512 1.93886,-1.2768 1.13493,-0.47289 2.31716,-0.47289 0.18916,0 0.37831,0 0.18916,0 0.37832,0.0473 0.75662,0.0946 1.51325,0.14186 0.75662,0.0473 1.51325,0.0473 l 0,6.053 q -0.94578,0 -1.89157,-0.0473 -0.94578,-0.0946 -1.89156,-0.18916 -1.93885,1.93885 -4.06686,3.16837 -2.12801,1.18222 -4.3506,1.89156 -2.17529,0.66205 -4.44517,0.89849 -2.26988,0.23645 -4.53975,0.33103 l 0,-1.27681 q 2.41174,-1.22951 4.20873,-3.26294 1.84427,-2.08072 1.84427,-4.53976 0,-0.33102 -0.0473,-0.66204 0,-0.37832 -0.0473,-0.70934 -2.08072,-1.32409 -3.73583,-3.0265 -1.65512,-1.70241 -2.83735,-3.64126 -1.13494,-1.93885 -1.79699,-4.11415 -0.61475,-2.1753 -0.61475,-4.49246 0,-4.06687 1.89156,-7.66084 1.89156,-3.59397 5.15451,-6.24216 3.31024,-2.69547 7.70812,-4.20872 4.44517,-1.56054 9.45782,-1.56054 4.91806,0 9.26866,1.51325 4.39788,1.46596 7.66083,4.06686 3.26295,2.6009 5.2018,6.10029 1.93885,3.49939 2.08072,7.51896 -1.46596,-0.66204 -3.07379,-1.04036 -1.56054,-0.4256 -3.16837,-0.52018 -0.4256,-1.98614 -1.60783,-3.83041 -1.18223,-1.84428 -3.07379,-3.35753 -1.22952,-0.99307 -2.69548,-1.79698 -1.46596,-0.80392 -3.12108,-1.37138 -1.79698,-0.61476 -3.68855,-0.8985 -1.84427,-0.33102 -3.78312,-0.33102 -1.93885,0 -3.83042,0.33102 -1.84427,0.28374 -3.64126,0.8985 -1.65512,0.56746 -3.12108,1.37138 -1.46596,0.80391 -2.69547,1.79698 l 0,0 z"
         style="font-style:normal;font-variant:normal;font-weight:normal;font-stretch:normal;font-size:48.42402267px;line-height:125%;font-family:icomoon;-inkscape-font-specification:'icomoon, Normal';text-align:start;writing-mode:lr-tb;text-anchor:start;fill:#663399;fill-opacity:1"
         id="path4707"
         inkscape:connector-curvature="0" />
    </g>
  </g>
</svg>
