<?xml version="1.0" encoding="UTF-8" standalone="no"?>
<!-- Created with Inkscape (http://www.inkscape.org/) -->

<svg
   xmlns:dc="http://purl.org/dc/elements/1.1/"
   xmlns:cc="http://creativecommons.org/ns#"
   xmlns:rdf="http://www.w3.org/1999/02/22-rdf-syntax-ns#"
   xmlns:svg="http://www.w3.org/2000/svg"
   xmlns="http://www.w3.org/2000/svg"
   xmlns:sodipodi="http://sodipodi.sourceforge.net/DTD/sodipodi-0.dtd"
   xmlns:inkscape="http://www.inkscape.org/namespaces/inkscape"
   width="117.89086mm"
   height="13.917521mm"
   viewBox="0 0 417.72353 49.314052"
   id="svg2"
   version="1.1"
   inkscape:version="0.91 r13725"
   sodipodi:docname="logo.svg">
  <defs
     id="defs4" />
  <sodipodi:namedview
     id="base"
     pagecolor="#ffffff"
     bordercolor="#666666"
     borderopacity="1.0"
     inkscape:pageopacity="0.0"
     inkscape:pageshadow="2"
     inkscape:zoom="0.87"
     inkscape:cx="127.82765"
     inkscape:cy="-112.40463"
     inkscape:document-units="px"
     inkscape:current-layer="layer1"
     showgrid="false"
     inkscape:window-width="1276"
     inkscape:window-height="755"
     inkscape:window-x="4"
     inkscape:window-y="0"
     inkscape:window-maximized="1"
     fit-margin-top="0"
     fit-margin-left="0"
     fit-margin-right="0"
     fit-margin-bottom="0" />
  <metadata
     id="metadata7">
    <rdf:RDF>
      <cc:Work
         rdf:about="">
        <dc:format>image/svg+xml</dc:format>
        <dc:type
           rdf:resource="http://purl.org/dc/dcmitype/StillImage" />
        <dc:title></dc:title>
      </cc:Work>
    </rdf:RDF>
  </metadata>
  <g
     inkscape:label="Layer 1"
     inkscape:groupmode="layer"
     id="layer1"
     transform="translate(-150.32239,-435.67298)">
    <g
       transform="scale(0.98195182,1.0183799)"
       style="font-style:normal;font-weight:normal;font-size:48.42402267px;line-height:125%;font-family:sans-serif;letter-spacing:0px;word-spacing:0px;fill:#be90d4;fill-opacity:1;stroke:none;stroke-width:1px;stroke-linecap:butt;stroke-linejoin:miter;stroke-opacity:1"
       id="text3336">
      <path
         d="m 204.53582,470.41734 q 0,1.60783 0.8512,2.93192 0.85121,1.3241 2.1753,1.98615 l 0,0.75662 q -0.37831,0.0473 -0.75662,0.0946 -0.37832,0.0473 -0.75663,0.0473 -2.45903,0 -4.58704,-0.94578 -2.08072,-0.94578 -3.59397,-2.6009 -0.94578,0.23644 -1.93885,0.37831 -0.94578,0.14187 -1.98614,0.14187 -2.83735,0 -5.34367,-0.94578 -2.45903,-0.94579 -4.30331,-2.6009 -1.84427,-1.65512 -2.93192,-3.83042 -1.04036,-2.22259 -1.04036,-4.72891 0,-2.50632 1.04036,-4.68162 1.08765,-2.22258 2.93192,-3.8777 1.84428,-1.65512 4.30331,-2.6009 2.50632,-0.94578 5.34367,-0.94578 2.83734,0 5.29637,0.94578 2.50632,0.94578 4.3506,2.6009 1.84427,1.65512 2.88463,3.8777 1.08765,2.1753 1.08765,4.68162 0,1.98614 -0.66205,3.78313 -0.66204,1.74969 -1.84427,3.21566 -0.23644,0.56747 -0.37831,1.13493 -0.14187,0.56747 -0.14187,1.18223 l 0,0 z m -40.52674,-32.15658 q -2.36446,1.93886 -3.64126,4.30331 -1.22952,2.36445 -1.22952,4.91807 0,1.41867 0.37831,2.83734 0.4256,1.37138 1.18223,2.64819 0.80391,1.37138 1.98614,2.6009 1.22952,1.18223 2.69548,2.12801 1.08765,0.70933 1.74969,1.79698 0.70934,1.08765 0.8985,2.36446 0.0946,0.4256 0.0946,0.8512 0.0473,0.4256 0.0946,0.8512 0.23645,-0.18915 0.47289,-0.4256 0.28374,-0.23644 0.56747,-0.52018 0.85121,-0.8512 1.93886,-1.2768 1.13493,-0.47289 2.31716,-0.47289 0.18916,0 0.37831,0 0.18916,0 0.37832,0.0473 0.75662,0.0946 1.51325,0.14186 0.75662,0.0473 1.51325,0.0473 l 0,6.053 q -0.94578,0 -1.89157,-0.0473 -0.94578,-0.0946 -1.89156,-0.18916 -1.93885,1.93885 -4.06686,3.16837 -2.12801,1.18222 -4.3506,1.89156 -2.17529,0.66205 -4.44517,0.89849 -2.26988,0.23645 -4.53975,0.33103 l 0,-1.27681 q 2.41174,-1.22951 4.20873,-3.26294 1.84427,-2.08072 1.84427,-4.53976 0,-0.33102 -0.0473,-0.66204 0,-0.37832 -0.0473,-0.70934 -2.08072,-1.32409 -3.73583,-3.0265 -1.65512,-1.70241 -2.83735,-3.64126 -1.13494,-1.93885 -1.79699,-4.11415 -0.61475,-2.1753 -0.61475,-4.49246 0,-4.06687 1.89156,-7.66084 1.89156,-3.59397 5.15451,-6.24216 3.31024,-2.69547 7.70812,-4.20872 4.44517,-1.56054 9.45782,-1.56054 4.91806,0 9.26866,1.51325 4.39788,1.46596 7.66083,4.06686 3.26295,2.6009 5.2018,6.10029 1.93885,3.49939 2.08072,7.51896 -1.46596,-0.66204 -3.07379,-1.04036 -1.56054,-0.4256 -3.16837,-0.52018 -0.4256,-1.98614 -1.60783,-3.83041 -1.18223,-1.84428 -3.07379,-3.35753 -1.22952,-0.99307 -2.69548,-1.79698 -1.46596,-0.80392 -3.12108,-1.37138 -1.79698,-0.61476 -3.68855,-0.8985 -1.84427,-0.33102 -3.78312,-0.33102 -1.93885,0 -3.83042,0.33102 -1.84427,0.28374 -3.64126,0.8985 -1.65512,0.56746 -3.12108,1.37138 -1.46596,0.80391 -2.69547,1.79698 l 0,0 z"
         style="font-style:normal;font-variant:normal;font-weight:normal;font-stretch:normal;font-size:48.42402267px;line-height:125%;font-family:icomoon;-inkscape-font-specification:'icomoon, Normal';text-align:start;writing-mode:lr-tb;text-anchor:start;fill:#663399;fill-opacity:1"
         id="path4206" />
    </g>
    <g
       style="font-style:normal;font-variant:normal;font-weight:normal;font-stretch:normal;font-size:40px;line-height:125%;font-family:Arvo;-inkscape-font-specification:'Arvo, Normal';text-align:start;letter-spacing:0px;word-spacing:0px;writing-mode:lr-tb;text-anchor:start;fill:#000000;fill-opacity:1;stroke:none;stroke-width:1px;stroke-linecap:butt;stroke-linejoin:miter;stroke-opacity:1"
       id="text3340">
      <path
         d="m 230.19435,450.961 q 0,-1.71875 -0.625,-2.57813 -0.625,-0.85937 -1.38672,-1.30859 -0.74219,-0.46875 -1.64062,-0.70313 -0.89844,-0.2539 -1.79688,-0.2539 -1.48437,0 -2.59765,0.35156 -1.11329,0.33203 -1.85547,0.91797 -0.72266,0.58594 -1.09375,1.36719 -0.3711,0.78125 -0.3711,1.64062 0,1.28906 0.44922,2.08985 0.46875,0.78125 1.17188,1.26953 0.70312,0.46875 1.54297,0.74218 0.85937,0.27344 1.64062,0.54688 l 3.94531,1.28906 q 1.77735,0.56641 3.125,1.28906 1.36719,0.72266 2.28516,1.71875 0.91797,0.97657 1.38672,2.26563 0.48828,1.28906 0.48828,2.98828 0,1.83594 -0.76172,3.39844 -0.74219,1.5625 -2.08984,2.71484 -1.34766,1.15235 -3.22266,1.81641 -1.85547,0.64453 -4.08203,0.64453 -2.28516,0 -3.90625,-0.52734 -1.62109,-0.50782 -2.73438,-1.36719 -1.09375,-0.87891 -1.75781,-1.99219 -0.66406,-1.11328 -1.03515,-2.28516 l -1.48438,0 0,-3.35937 4.92188,0 q 0,2.16797 0.44921,3.06641 0.46875,0.89843 1.28907,1.5039 0.82031,0.58594 1.95312,0.89844 1.13281,0.29297 2.5,0.29297 1.32813,0 2.38281,-0.3125 1.07422,-0.3125 1.81641,-0.89844 0.76172,-0.60547 1.15234,-1.44531 0.41016,-0.85938 0.41016,-1.9336 0,-1.1914 -0.50781,-2.01171 -0.48828,-0.83985 -1.26953,-1.42579 -0.78125,-0.58593 -1.71875,-0.95703 -0.91797,-0.37109 -1.77735,-0.64453 l -4.27734,-1.21094 q -1.40625,-0.42968 -2.57813,-1.09375 -1.15234,-0.66406 -1.99218,-1.62109 -0.82032,-0.95703 -1.26953,-2.22656 -0.44922,-1.28906 -0.44922,-2.96875 0,-1.69922 0.66406,-3.1836 0.66406,-1.48437 1.95312,-2.59765 1.28907,-1.11328 3.14454,-1.73828 1.875,-0.64453 4.27734,-0.64453 1.58203,0 2.91016,0.37109 1.34765,0.37109 2.42187,1.05469 1.09375,0.66406 1.91406,1.62109 0.83985,0.9375 1.40625,2.07031 l 1.46485,0 0,3.35938 -4.78516,0 z"
         style="fill:#663399;fill-opacity:1"
         id="path4167" />
      <path
         d="m 238.51466,462.40631 q 0.0195,-2.40234 0.76172,-4.375 0.76172,-1.97266 2.10938,-3.37891 1.34765,-1.42578 3.20312,-2.1875 1.85547,-0.76171 4.08203,-0.76171 2.2461,0 4.10157,0.76171 1.875,0.76172 3.20312,2.16797 1.32813,1.38672 2.07031,3.35938 0.74219,1.97265 0.74219,4.375 0,2.36328 -0.74219,4.35547 -0.74218,1.97265 -2.07031,3.39843 -1.32812,1.42579 -3.20312,2.22657 -1.85547,0.78125 -4.10157,0.78125 -2.28515,0 -4.14062,-0.78125 -1.85547,-0.78125 -3.1836,-2.1875 -1.32812,-1.42578 -2.07031,-3.39844 -0.74219,-1.97266 -0.76172,-4.35547 z m 3.84766,0 q 0,1.73828 0.48828,3.14453 0.50781,1.40625 1.36719,2.40235 0.8789,0.97656 2.01172,1.52343 1.15234,0.52735 2.4414,0.52735 1.34766,0 2.5,-0.52735 1.17188,-0.52734 2.03125,-1.5039 0.85938,-0.9961 1.34766,-2.40235 0.48828,-1.40625 0.48828,-3.16406 0,-1.83594 -0.48828,-3.26172 -0.48828,-1.42578 -1.34766,-2.38281 -0.83984,-0.95703 -2.01172,-1.44531 -1.17187,-0.48828 -2.51953,-0.48828 -1.28906,0 -2.4414,0.48828 -1.13282,0.48828 -2.01172,1.44531 -0.85938,0.95703 -1.36719,2.38281 -0.48828,1.42578 -0.48828,3.26172 z"
         style="fill:#663399;fill-opacity:1"
         id="path4169" />
      <path
         d="m 277.2256,457.67975 q -0.82031,-1.46485 -2.08984,-2.14844 -1.25,-0.68359 -2.91016,-0.68359 -1.26953,0 -2.38281,0.52734 -1.11328,0.52734 -1.95313,1.50391 -0.82031,0.97656 -1.30859,2.38281 -0.46875,1.38672 -0.46875,3.10547 0,1.69922 0.46875,3.0664 0.48828,1.36719 1.32812,2.34375 0.83985,0.95704 1.9336,1.48438 1.11328,0.50781 2.38281,0.50781 1.875,0 3.26172,-0.89844 1.38672,-0.91796 2.20703,-2.67578 l 3.00781,1.48438 q -0.58593,1.25 -1.44531,2.24609 -0.85937,0.9961 -1.95312,1.69922 -1.07422,0.70313 -2.38282,1.07422 -1.28906,0.39062 -2.73437,0.39062 -2.10938,0 -3.90625,-0.78125 -1.77735,-0.80078 -3.08594,-2.22656 -1.28906,-1.42578 -2.01172,-3.39844 -0.72265,-1.97265 -0.72265,-4.3164 0,-2.34375 0.76171,-4.31641 0.76172,-1.97265 2.08985,-3.3789 1.32812,-1.42579 3.10547,-2.22657 1.77734,-0.80078 3.80859,-0.80078 1.91406,0 3.61328,0.66406 1.71875,0.66407 3.00781,2.01172 l 2.05079,0 0,3.35938 -3.67188,0 z"
         style="fill:#663399;fill-opacity:1"
         id="path4171" />
      <path
         d="m 284.25685,452.28912 6.60156,0 0,16.875 3.04688,0 0,3.35938 -9.60938,0 0,-3.35938 2.89063,0 0,-13.51562 -2.92969,0 0,-3.35938 z m 2.24609,-7.16797 q 0,-0.50781 0.19532,-0.95703 0.21484,-0.46875 0.54687,-0.80078 0.35156,-0.35156 0.82031,-0.54687 0.46875,-0.21485 0.9961,-0.21485 0.50781,0 0.95703,0.21485 0.46875,0.19531 0.80078,0.54687 0.35156,0.33203 0.54688,0.80078 0.21484,0.44922 0.21484,0.95703 0,0.52735 -0.21484,0.9961 -0.19532,0.46875 -0.54688,0.83984 -0.33203,0.35156 -0.80078,0.56641 -0.44922,0.19531 -0.95703,0.19531 -0.52735,0 -0.9961,-0.19531 -0.46875,-0.21485 -0.82031,-0.56641 -0.33203,-0.37109 -0.54687,-0.83984 -0.19532,-0.46875 -0.19532,-0.9961 z"
         style="fill:#663399;fill-opacity:1"
         id="path4173" />
      <path
         d="m 309.12013,470.6485 q -1.15234,1.07422 -2.55859,1.75781 -1.38672,0.68359 -3.16406,0.68359 -1.48438,0 -2.73438,-0.46875 -1.23047,-0.46875 -2.12891,-1.26953 -0.89843,-0.82031 -1.40625,-1.89453 -0.48828,-1.07422 -0.48828,-2.28515 0,-1.28907 0.3711,-2.28516 0.39062,-0.99609 1.01562,-1.71875 0.64453,-0.74219 1.48438,-1.23047 0.85937,-0.50781 1.77734,-0.80078 0.9375,-0.3125 1.89453,-0.42969 0.97656,-0.13672 1.85547,-0.13672 1.40625,0 2.36328,0.0977 0.95703,0.0781 1.73828,0.23437 l 0.0195,-1.66015 q 0,-1.07422 -0.3125,-1.85547 -0.3125,-0.80078 -0.8789,-1.30859 -0.56641,-0.52735 -1.36719,-0.78125 -0.78125,-0.25391 -1.75781,-0.25391 -0.91797,0 -1.75781,0.13672 -0.83985,0.11719 -1.58204,0.33203 -0.72265,0.19531 -1.34765,0.46875 -0.60547,0.25391 -1.03516,0.54687 l -1.1914,-2.51953 q 0.72265,-0.46875 1.58203,-0.85937 0.85937,-0.41016 1.79687,-0.6836 0.95703,-0.29296 1.9336,-0.44921 0.99609,-0.17579 1.95312,-0.17579 1.75781,0 3.16406,0.42969 1.40625,0.41016 2.38282,1.28906 0.97656,0.87891 1.5039,2.2461 0.52735,1.34765 0.52735,3.24219 l -0.0195,10.11718 2.2461,0 0,3.35938 -5.87891,0 0,-1.875 z m -4.92187,-0.60547 q 0.72265,0 1.44531,-0.17578 0.72266,-0.17578 1.36719,-0.46875 0.64453,-0.3125 1.1914,-0.70313 0.54688,-0.41015 0.91797,-0.83984 l 0.0195,-4.57031 -4.21875,0 q -1.05468,0 -1.93359,0.23437 -0.85938,0.23438 -1.50391,0.6836 -0.625,0.44921 -0.97656,1.11328 -0.35156,0.66406 -0.35156,1.52343 0,0.80079 0.29297,1.40625 0.29297,0.58594 0.82031,0.9961 0.54687,0.39062 1.28906,0.60547 0.74219,0.19531 1.64063,0.19531 z"
         style="fill:#663399;fill-opacity:1"
         id="path4175" />
      <path
         d="m 318.86623,442.13287 6.5625,0 0,27.03125 3.04687,0 0,3.35938 -9.60937,0 0,-3.35938 2.92968,0 0,-23.67187 -2.92968,0 0,-3.35938 z"
         style="fill:#663399;fill-opacity:1"
         id="path4177" />
      <path
         d="m 343.96388,470.6485 q -1.15234,1.07422 -2.55859,1.75781 -1.38672,0.68359 -3.16406,0.68359 -1.48438,0 -2.73438,-0.46875 -1.23047,-0.46875 -2.12891,-1.26953 -0.89843,-0.82031 -1.40625,-1.89453 -0.48828,-1.07422 -0.48828,-2.28515 0,-1.28907 0.3711,-2.28516 0.39062,-0.99609 1.01562,-1.71875 0.64453,-0.74219 1.48438,-1.23047 0.85937,-0.50781 1.77734,-0.80078 0.9375,-0.3125 1.89453,-0.42969 0.97656,-0.13672 1.85547,-0.13672 1.40625,0 2.36328,0.0977 0.95703,0.0781 1.73828,0.23437 l 0.0195,-1.66015 q 0,-1.07422 -0.3125,-1.85547 -0.3125,-0.80078 -0.8789,-1.30859 -0.56641,-0.52735 -1.36719,-0.78125 -0.78125,-0.25391 -1.75781,-0.25391 -0.91797,0 -1.75781,0.13672 -0.83985,0.11719 -1.58204,0.33203 -0.72265,0.19531 -1.34765,0.46875 -0.60547,0.25391 -1.03516,0.54687 l -1.1914,-2.51953 q 0.72265,-0.46875 1.58203,-0.85937 0.85937,-0.41016 1.79687,-0.6836 0.95703,-0.29296 1.9336,-0.44921 0.99609,-0.17579 1.95312,-0.17579 1.75781,0 3.16406,0.42969 1.40625,0.41016 2.38282,1.28906 0.97656,0.87891 1.5039,2.2461 0.52735,1.34765 0.52735,3.24219 l -0.0195,10.11718 2.2461,0 0,3.35938 -5.87891,0 0,-1.875 z m -4.92187,-0.60547 q 0.72265,0 1.44531,-0.17578 0.72266,-0.17578 1.36719,-0.46875 0.64453,-0.3125 1.1914,-0.70313 0.54688,-0.41015 0.91797,-0.83984 l 0.0195,-4.57031 -4.21875,0 q -1.05468,0 -1.93359,0.23437 -0.85938,0.23438 -1.50391,0.6836 -0.625,0.44921 -0.97656,1.11328 -0.35156,0.66406 -0.35156,1.52343 0,0.80079 0.29297,1.40625 0.29297,0.58594 0.82031,0.9961 0.54687,0.39062 1.28906,0.60547 0.74219,0.19531 1.64063,0.19531 z"
         style="fill:#663399;fill-opacity:1"
         id="path4179" />
      <path
         d="m 353.06544,452.28912 6.44532,0 0,1.67969 q 1.28906,-0.99609 2.8125,-1.58203 1.52343,-0.58594 3.14453,-0.58594 1.99219,0 3.65234,0.74219 1.66016,0.74219 2.85156,2.08984 1.21094,1.34766 1.875,3.24219 0.66407,1.875 0.66407,4.16016 0,2.4414 -0.74219,4.45312 -0.74219,2.01172 -2.07031,3.45703 -1.3086,1.42578 -3.125,2.22657 -1.81641,0.80078 -3.98438,0.80078 -1.54297,0 -2.7539,-0.33203 -1.19141,-0.3125 -2.28516,-0.82032 l 0,6.54297 3.16406,0 0,3.35938 -9.60937,0 0,-3.35938 2.77343,0 0,-22.71484 -2.8125,0 0,-3.35938 z m 11.44532,2.71485 q -1.40625,0 -2.71485,0.5664 -1.28906,0.56641 -2.24609,1.5625 l 0,10.95703 q 0.64453,0.66407 1.83594,1.19141 1.21093,0.52734 3.00781,0.52734 1.25,0 2.40234,-0.48828 1.15235,-0.48828 2.03125,-1.44531 0.87891,-0.97656 1.40625,-2.40234 0.52735,-1.42578 0.52735,-3.30078 0,-1.71875 -0.50782,-3.04688 -0.48828,-1.32812 -1.34765,-2.24609 -0.83985,-0.91797 -1.97266,-1.38672 -1.13281,-0.48828 -2.42187,-0.48828 z"
         style="fill:#663399;fill-opacity:1"
         id="path4181" />
      <path
         d="m 378.04591,462.40631 q 0.0195,-2.40234 0.76172,-4.375 0.76172,-1.97266 2.10938,-3.37891 1.34765,-1.42578 3.20312,-2.1875 1.85547,-0.76171 4.08203,-0.76171 2.2461,0 4.10157,0.76171 1.875,0.76172 3.20312,2.16797 1.32813,1.38672 2.07031,3.35938 0.74219,1.97265 0.74219,4.375 0,2.36328 -0.74219,4.35547 -0.74218,1.97265 -2.07031,3.39843 -1.32812,1.42579 -3.20312,2.22657 -1.85547,0.78125 -4.10157,0.78125 -2.28515,0 -4.14062,-0.78125 -1.85547,-0.78125 -3.1836,-2.1875 -1.32812,-1.42578 -2.07031,-3.39844 -0.74219,-1.97266 -0.76172,-4.35547 z m 3.84766,0 q 0,1.73828 0.48828,3.14453 0.50781,1.40625 1.36719,2.40235 0.8789,0.97656 2.01172,1.52343 1.15234,0.52735 2.4414,0.52735 1.34766,0 2.5,-0.52735 1.17188,-0.52734 2.03125,-1.5039 0.85938,-0.9961 1.34766,-2.40235 0.48828,-1.40625 0.48828,-3.16406 0,-1.83594 -0.48828,-3.26172 -0.48828,-1.42578 -1.34766,-2.38281 -0.83984,-0.95703 -2.01172,-1.44531 -1.17187,-0.48828 -2.51953,-0.48828 -1.28906,0 -2.4414,0.48828 -1.13282,0.48828 -2.01172,1.44531 -0.85938,0.95703 -1.36719,2.38281 -0.48828,1.42578 -0.48828,3.26172 z"
         style="fill:#663399;fill-opacity:1"
         id="path4183" />
      <path
         d="m 401.99123,442.13287 6.5625,0 0,27.03125 3.04687,0 0,3.35938 -9.60937,0 0,-3.35938 2.92968,0 0,-23.67187 -2.92968,0 0,-3.35938 z"
         style="fill:#663399;fill-opacity:1"
         id="path4185" />
      <path
         d="m 415.0381,452.28912 6.60156,0 0,16.875 3.04688,0 0,3.35938 -9.60938,0 0,-3.35938 2.89063,0 0,-13.51562 -2.92969,0 0,-3.35938 z m 2.24609,-7.16797 q 0,-0.50781 0.19532,-0.95703 0.21484,-0.46875 0.54687,-0.80078 0.35156,-0.35156 0.82031,-0.54687 0.46875,-0.21485 0.9961,-0.21485 0.50781,0 0.95703,0.21485 0.46875,0.19531 0.80078,0.54687 0.35156,0.33203 0.54688,0.80078 0.21484,0.44922 0.21484,0.95703 0,0.52735 -0.21484,0.9961 -0.19532,0.46875 -0.54688,0.83984 -0.33203,0.35156 -0.80078,0.56641 -0.44922,0.19531 -0.95703,0.19531 -0.52735,0 -0.9961,-0.19531 -0.46875,-0.21485 -0.82031,-0.56641 -0.33203,-0.37109 -0.54687,-0.83984 -0.19532,-0.46875 -0.19532,-0.9961 z"
         style="fill:#663399;fill-opacity:1"
         id="path4187" />
      <path
         d="m 433.86623,452.28912 4.74609,0 0,2.94922 -4.78516,0 -0.0586,11.67969 q 0,1.19141 0.27344,1.93359 0.27343,0.74219 0.8789,1.03516 0.60547,0.27344 1.36719,0.27344 0.82031,0 1.44531,-0.13672 0.625,-0.15625 1.36719,-0.50781 l 0.83984,2.4414 q -0.9375,0.48828 -1.97265,0.76172 -1.03516,0.29297 -2.44141,0.29297 -1.32812,0 -2.32422,-0.33203 -0.97656,-0.3125 -1.66015,-1.07422 -0.66407,-0.76172 -0.9961,-2.03125 -0.33203,-1.28906 -0.33203,-3.20313 l 0.0586,-11.13281 -3.22266,0 0,-2.94922 3.26172,0 0,-4.84375 3.55469,-1.67968 0,6.52343 z"
         style="fill:#663399;fill-opacity:1"
         id="path4189" />
      <path
         d="m 442.77248,452.28912 6.60156,0 0,16.875 3.04687,0 0,3.35938 -9.60937,0 0,-3.35938 2.89062,0 0,-13.51562 -2.92968,0 0,-3.35938 z m 2.24609,-7.16797 q 0,-0.50781 0.19531,-0.95703 0.21485,-0.46875 0.54688,-0.80078 0.35156,-0.35156 0.82031,-0.54687 0.46875,-0.21485 0.99609,-0.21485 0.50782,0 0.95703,0.21485 0.46875,0.19531 0.80079,0.54687 0.35156,0.33203 0.54687,0.80078 0.21484,0.44922 0.21484,0.95703 0,0.52735 -0.21484,0.9961 -0.19531,0.46875 -0.54687,0.83984 -0.33204,0.35156 -0.80079,0.56641 -0.44921,0.19531 -0.95703,0.19531 -0.52734,0 -0.99609,-0.19531 -0.46875,-0.21485 -0.82031,-0.56641 -0.33203,-0.37109 -0.54688,-0.83984 -0.19531,-0.46875 -0.19531,-0.9961 z"
         style="fill:#663399;fill-opacity:1"
         id="path4191" />
      <path
         d="m 455.58498,442.13287 7.1289,0 0,3.35938 -0.0391,0 0,15.11719 3.51562,0 4.80469,-4.96094 -1.21094,0 0,-3.35938 7.67579,0 0,3.35938 -2.5586,0 -6.15234,6.34765 6.71875,7.16797 2.4414,0 0,3.35938 -4.27734,0 -8.28125,-9.04297 -2.67578,0 0,5.68359 1.67969,0 0,3.35938 -8.65235,0 0,-3.35938 3.32032,0 0,-23.67187 -3.4375,0 0,-3.35938 z"
         style="fill:#663399;fill-opacity:1"
         id="path4193" />
      <path
         d="m 483.86623,462.87506 q 0,0.85938 0.11718,1.58203 0.13672,0.70313 0.3711,1.34766 0.72265,1.95312 2.30468,2.94922 1.60157,0.97656 3.61329,0.97656 1.58203,0 3.0664,-0.42969 1.50391,-0.44922 3.14453,-1.38672 l 1.46485,2.48047 q -1.99219,1.36719 -4.00391,2.03125 -2.01172,0.66406 -4.17969,0.66406 -2.05078,0 -3.80859,-0.68359 -1.73828,-0.68359 -3.00781,-2.03125 -1.25,-1.34766 -1.97266,-3.35937 -0.70312,-2.01172 -0.70312,-4.6875 0,-2.16797 0.60546,-4.08204 0.60547,-1.93359 1.79688,-3.35937 1.21094,-1.44531 2.98828,-2.28516 1.77734,-0.83984 4.14063,-0.83984 2.28515,0 3.80859,0.70312 1.54297,0.6836 2.5,1.83594 0.97656,1.13281 1.46484,2.59766 0.50782,1.46484 0.70313,2.98828 0.0977,0.74219 0.11719,1.50391 0.0391,0.76171 0.0391,1.48437 l -14.57031,0 z m 5.68359,-8.06641 q -1.26953,0 -2.22656,0.3711 -0.9375,0.35156 -1.60157,1.03515 -0.66406,0.66407 -1.07421,1.64063 -0.39063,0.97656 -0.58594,2.1875 l 10.48828,0 q -0.0781,-1.13281 -0.37109,-2.08984 -0.27344,-0.95704 -0.85938,-1.66016 -0.58594,-0.70313 -1.50391,-1.09375 -0.91796,-0.39063 -2.26562,-0.39063 z"
         style="fill:#663399;fill-opacity:1"
         id="path4195" />
      <path
         d="m 517.55763,456.56647 -3.71094,0 0,-1.25 q -0.64453,0 -1.32812,0.2539 -0.66406,0.23438 -1.25,0.74219 -0.58594,0.48828 -1.03516,1.26953 -0.42968,0.76172 -0.625,1.81641 l 0,9.76562 3.4375,0 0,3.35938 -10.03906,0 0,-3.35938 2.79297,0 0.0195,-13.51562 -2.8125,0 0,-3.35938 6.46484,0 0,2.79297 q 0.35157,-0.625 0.78125,-1.15234 0.44922,-0.54688 0.97657,-0.9375 0.54687,-0.41016 1.1914,-0.625 0.66407,-0.23438 1.42578,-0.23438 1.01563,0 1.91407,0 0.89843,0 1.79687,0.0391 l 0,4.39453 z"
         style="fill:#663399;fill-opacity:1"
         id="path4197" />
      <path
         d="m 521.67873,470.16022 q 0,-0.50782 0.19531,-0.95703 0.21484,-0.46875 0.5664,-0.80079 0.35157,-0.35156 0.80079,-0.54687 0.46875,-0.21484 0.99609,-0.21484 0.50781,0 0.95703,0.21484 0.46875,0.19531 0.80078,0.54687 0.35156,0.33204 0.54688,0.80079 0.21484,0.44921 0.21484,0.95703 0,0.52734 -0.21484,0.99609 -0.19532,0.46875 -0.54688,0.83984 -0.33203,0.35157 -0.80078,0.54688 -0.44922,0.21484 -0.95703,0.21484 -0.52734,0 -0.99609,-0.21484 -0.44922,-0.19531 -0.80079,-0.54688 -0.35156,-0.37109 -0.5664,-0.83984 -0.19531,-0.46875 -0.19531,-0.99609 z"
         style="fill:#be90d4;fill-opacity:1"
         id="path4199" />
      <path
         d="m 542.34279,457.71881 q 0,-0.82031 -0.39063,-1.38672 -0.37109,-0.58594 -0.97656,-0.9375 -0.60547,-0.37109 -1.34766,-0.52734 -0.74218,-0.17578 -1.44531,-0.17578 -0.78125,0 -1.44531,0.17578 -0.64453,0.17578 -1.11328,0.50781 -0.46875,0.33203 -0.74219,0.82031 -0.25391,0.46875 -0.25391,1.05469 0,1.01563 0.60547,1.62109 0.625,0.58594 2.07032,1.09375 l 3.88671,1.36719 q 2.5,0.83985 3.65235,2.28516 1.15234,1.44531 1.15234,3.45703 0,1.34766 -0.54687,2.48047 -0.52735,1.11328 -1.52344,1.91406 -0.97656,0.78125 -2.36328,1.21094 -1.38672,0.44922 -3.08594,0.44922 -2.36328,0 -3.84766,-0.76172 -1.48437,-0.76172 -2.28515,-2.01172 l -2.03125,0 0,-3.35938 4.04297,0 q 0,0.83985 0.35156,1.44532 0.37109,0.58593 0.95703,0.95703 0.60547,0.37109 1.34766,0.54687 0.76172,0.17578 1.54297,0.17578 0.76171,0 1.46484,-0.17578 0.70312,-0.19531 1.23047,-0.54687 0.54687,-0.3711 0.85937,-0.87891 0.3125,-0.50781 0.3125,-1.15234 0,-0.97656 -0.64453,-1.66016 -0.625,-0.68359 -2.14844,-1.23047 l -3.86718,-1.44531 q -2.36328,-0.83984 -3.51563,-2.12891 -1.13281,-1.30859 -1.13281,-3.26171 0,-1.28907 0.46875,-2.38282 0.48828,-1.09375 1.38672,-1.875 0.91797,-0.80078 2.22656,-1.25 1.30859,-0.44922 2.98828,-0.44922 2.16797,0 3.63281,0.60547 1.46485,0.60547 2.63672,2.07032 l 1.89453,0 0,3.35937 -4.0039,0 z"
         style="fill:#be90d4;fill-opacity:1"
         id="path4201" />
      <path
         d="m 553.4756,462.87506 q 0,0.85938 0.11719,1.58203 0.13672,0.70313 0.37109,1.34766 0.72266,1.95312 2.30469,2.94922 1.60156,0.97656 3.61328,0.97656 1.58203,0 3.06641,-0.42969 1.5039,-0.44922 3.14453,-1.38672 l 1.46484,2.48047 q -1.99219,1.36719 -4.0039,2.03125 -2.01172,0.66406 -4.17969,0.66406 -2.05078,0 -3.8086,-0.68359 -1.73828,-0.68359 -3.00781,-2.03125 -1.25,-1.34766 -1.97265,-3.35937 -0.70313,-2.01172 -0.70313,-4.6875 0,-2.16797 0.60547,-4.08204 0.60547,-1.93359 1.79687,-3.35937 1.21094,-1.44531 2.98829,-2.28516 1.77734,-0.83984 4.14062,-0.83984 2.28516,0 3.80859,0.70312 1.54297,0.6836 2.5,1.83594 0.97657,1.13281 1.46485,2.59766 0.50781,1.46484 0.70312,2.98828 0.0977,0.74219 0.11719,1.50391 0.0391,0.76171 0.0391,1.48437 l -14.57031,0 z m 5.68359,-8.06641 q -1.26953,0 -2.22656,0.3711 -0.9375,0.35156 -1.60156,1.03515 -0.66406,0.66407 -1.07422,1.64063 -0.39062,0.97656 -0.58594,2.1875 l 10.48828,0 q -0.0781,-1.13281 -0.37109,-2.08984 -0.27344,-0.95704 -0.85937,-1.66016 -0.58594,-0.70313 -1.50391,-1.09375 -0.91797,-0.39063 -2.26563,-0.39063 z"
         style="fill:#be90d4;fill-opacity:1"
         id="path4203" />
    </g>
  </g>
</svg>
